:FULLY-SPECIFIED
:FORCE-ALL-JOINTS-BE-3DOF
:DEGREES
2344
root 1.55935 14.3643 -18.3291 920.785 -57.2155 168.104
lfemur -22.8666 -6.73796 9.80024
ltibia 23.8164 -0 0
lfoot -10.03 24.8885 -0.0177964
ltoes -40.5421 0 0
rfemur -62.0781 -4.96272 9.49985
rtibia 77.9002 -0 0
rfoot -16.2371 -10.9636 0.408232
rtoes 1.66656 0 0
lowerback 20.8908 3.67318 -3.95601
upperback 0.390269 3.63719 -1.0185
thorax -11.4958 1.82387 0.025725
lowerneck -5.30259 -2.04716 -4.23819
upperneck 1.80819 -2.46358 -0.212955
head 1.5109 -1.27851 0.576845
lclavicle 4.94481e-14 -5.87766e-15 -1.51361e-30
lhumerus -25.7811 -25.6938 83.1395
lradius 101.121 -0 0
lwrist 56.3565 0 0
lhand -22.5147 38.6532 0.0153204
lfingers 7.12502 -0 0
lthumb 3.70015 69.3127 0.00105035
rclavicle 6.37095e-14 8.80341e-15 9.54089e-30
rhumerus 45.9314 13.1688 -43.616
rradius 51.2823 -0 0
rwrist 3.95759 0 0
rhand -6.76978 -40.0042 -0.000700585
rfingers 7.12502 0 0
rthumb 19.1997 -69.101 -0.0480727
2345
root 1.69536 14.4422 -18.51 922.398 -60.322 166.81
lfemur -24.0679 -6.89604 10.4213
ltibia 23.7747 0 0
lfoot -9.88117 24.6704 -0.0262485
ltoes -38.7203 0 0
rfemur -61.5306 -3.90723 9.28514
rtibia 77.6618 -0 0
rfoot -16.7905 -11.9115 0.374741
rtoes 1.64776 -0 0
lowerback 21.0459 3.59166 -3.7812
upperback 0.416447 3.56553 -1.02336
thorax -11.5381 1.78087 -0.0635514
lowerneck -5.57499 -1.62496 -4.23017
upperneck 2.24731 -1.87732 -0.216943
head 1.68879 -0.991453 0.590228
lclavicle 4.52597e-14 -6.63026e-15 -2.0155e-30
lhumerus -23.6542 -25.8479 81.9671
lradius 101.622 -0 0
lwrist 55.6414 0 0
lhand -22.664 38.4999 0.00914972
lfingers 7.12502 -0 0
lthumb 3.67076 -650.712 0
rclavicle 5.77979e-14 1.06329e-14 9.25605e-30
rhumerus 45.8943 13.4685 -43.472
rradius 51.8842 -0 0
rwrist 3.60768 0 0
rhand -6.64454 -40.0391 -0.00265894
rfingers 7.12502 -0 0
rthumb 19.6584 -69.2385 -0.0475223
2346
root 1.82913 14.5176 -18.7003 924.1 -63.7196 165.561
lfemur -25.0434 -7.01468 10.9275
ltibia 24.0911 -0 0
lfoot -9.70693 24.4151 -0.0354208
ltoes -36.8469 0 0
rfemur -61.0254 -2.92382 9.09474
rtibia 77.4208 -0 0
rfoot -17.3191 -12.8178 0.334149
rtoes 1.59332 -0 0
lowerback 21.1488 3.44163 -3.42146
upperback 0.395323 3.47369 -0.890133
thorax -11.6018 1.7261 -0.0972185
lowerneck -5.69656 -1.22645 -3.87397
upperneck 2.51125 -1.34528 -0.644968
head 1.7762 -0.736716 0.411236
lclavicle 4.05633e-14 -7.47415e-15 -2.51285e-30
lhumerus -21.8894 -25.9457 80.9914
lradius 102.165 -0 0
lwrist 54.9531 0 0
lhand -22.7754 38.3855 0.0042783
lfingers 7.12502 -0 0
lthumb 3.62908 69.2806 0.00067098
rclavicle 5.19926e-14 1.24296e-14 8.79262e-30
rhumerus 45.8715 13.6551 -43.3824
rradius 52.3321 -0 0
rwrist 3.34503 0 0
rhand -6.44631 -40.0944 -0.00560258
rfingers 7.12502 -0 0
rthumb 20.1125 -69.3745 -0.0458938
2347
root 1.95751 14.5872 -18.8996 926.548 -67.1653 163.544
lfemur -25.7691 -7.09729 11.3049
ltibia 25.0007 -0 0
lfoot -9.5101 24.1268 -0.0448462
ltoes -34.9565 0 0
rfemur -60.5684 -2.02645 8.92895
rtibia 77.1798 -0 0
rfoot -17.817 -13.6721 0.288214
rtoes 1.50621 -0 0
lowerback 21.2516 3.32828 -3.15101
upperback 0.327563 3.40334 -0.807588
thorax -11.7224 1.68504 -0.145228
lowerneck -5.58657 -0.860911 -3.62673
upperneck 2.60906 -0.869136 -0.856863
head 1.77656 -0.502227 0.318361
lclavicle 3.5437e-14 -8.39529e-15 -2.97677e-30
lhumerus -20.551 -26.0018 80.25
lradius 102.743 -0 0
lwrist 54.2985 0 0
lhand -22.8453 38.3138 0.00111482
lfingers 7.12502 -0 0
lthumb 3.50826 69.2591 0.00258547
rclavicle 4.63465e-14 1.41769e-14 8.16729e-30
rhumerus 45.8637 13.7193 -43.3516
rradius 52.6117 -0 0
rwrist 3.17991 0 0
rhand -6.18366 -40.1677 -0.0092078
rfingers 7.12502 -0 0
rthumb 20.5571 -69.5078 -0.0432542
